
<svg xmlns="http://www.w3.org/2000/svg" viewBox="0 0 24 24" width="24" height="24">
    <defs>
        <linearGradient id="grad1" x1="0%" y1="0%" x2="100%" y2="0%">
            <stop offset="0%" style="stop-color:#ff105f;stop-opacity:1" />
            <stop offset="100%" style="stop-color:#ffad06;stop-opacity:1" />
        </linearGradient>
    </defs>
    <path fill="none" d="M0 0h24v24H0z"/>
    <path fill="url(#grad1)" d="M8 4h13v2H8V4zM4.5 6.5a1.5 1.5 0 1 1 0-3 1.5 1.5 0 0 1 0 3zm0 7a1.5 1.5 0 1 1 0-3 1.5 1.5 0 0 1 0 3zm0 6.9a1.5 1.5 0 1 1 0-3 1.5 1.5 0 0 1 0 3zM8 11h13v2H8v-2zm0 7h13v2H8v-2z"/>
</svg>